<svg width="144" height="35" viewBox="0 0 144 35" fill="none" xmlns="http://www.w3.org/2000/svg">
<mask id="path-1-outside-1_28212_211" maskUnits="userSpaceOnUse" x="0" y="0" width="144" height="35" fill="black">
<rect fill="white" width="144" height="35"/>
<path d="M1 7.73727V33.6084H4.75838V14.8746H5.00127L12.7226 33.5705H15.8418L23.5631 14.8872H23.806V33.6084H27.5643V7.73727H22.7705L14.4356 27.848H14.1288L5.79385 7.73727H1Z"/>
<path d="M42.1313 34C46.4138 34 49.4435 31.9157 50.3128 28.7576L46.695 28.1133C46.0047 29.945 44.3428 30.8798 42.1696 30.8798C38.897 30.8798 36.6982 28.7828 36.596 25.0436H50.5557V23.7046C50.5557 16.6936 46.3115 13.9524 41.8628 13.9524C36.3914 13.9524 32.7864 18.0706 32.7864 24.033C32.7864 30.0587 36.3403 34 42.1313 34ZM36.6088 22.214C36.7622 19.4601 38.782 17.0726 41.8884 17.0726C44.8542 17.0726 46.7973 19.2454 46.8101 22.214H36.6088Z"/>
<path d="M69.5106 18.9422C68.718 15.9231 66.3275 13.9524 62.0833 13.9524C57.6474 13.9524 54.5026 16.2641 54.5026 19.7001C54.5026 22.454 56.19 24.2857 59.8717 25.0942L63.1955 25.8142C65.0874 26.2311 65.9695 27.0648 65.9695 28.2775C65.9695 29.7808 64.346 30.9556 61.8404 30.9556C59.5521 30.9556 58.082 29.9829 57.6218 28.0754L53.9273 28.6312C54.5665 32.0672 57.4556 34 61.866 34C66.6087 34 69.8941 31.5114 69.8941 27.9996C69.8941 25.2584 68.1299 23.5657 64.525 22.7445L61.4058 22.0371C59.2453 21.5318 58.3121 20.8118 58.3249 19.498C58.3121 18.0074 59.9484 16.9463 62.1216 16.9463C64.4994 16.9463 65.5988 18.2474 66.0462 19.5486L69.5106 18.9422Z"/>
<path d="M83.2625 14.2051H79.2357V9.55633H75.4134V14.2051H72.5371V17.2368H75.4134V28.6944C75.4006 32.2188 78.1235 33.9242 81.1405 33.861C82.3549 33.8484 83.1731 33.621 83.6205 33.4568L82.9302 30.3366C82.6745 30.3871 82.2015 30.5008 81.5879 30.5008C80.3479 30.5008 79.2357 30.0966 79.2357 27.9112V17.2368H83.2625V14.2051Z"/>
<path d="M95.5508 34C101.086 34 104.704 29.9955 104.704 23.9951C104.704 17.9569 101.086 13.9524 95.5508 13.9524C90.0155 13.9524 86.3977 17.9569 86.3977 23.9951C86.3977 29.9955 90.0155 34 95.5508 34ZM95.5636 30.8293C91.9458 30.8293 90.2584 27.7091 90.2584 23.9825C90.2584 20.2686 91.9458 17.1105 95.5636 17.1105C99.1558 17.1105 100.843 20.2686 100.843 23.9825C100.843 27.7091 99.1558 30.8293 95.5636 30.8293Z"/>
<path d="M108.176 9.8932H109.233V6.52456H111.142C111.219 6.52456 111.291 6.52456 111.364 6.52035L113.205 9.8932H114.432L112.459 6.33087C113.571 5.95611 114.091 5.05921 114.091 3.91387C114.091 2.38956 113.171 1.26949 111.125 1.26949H108.176V9.8932ZM109.233 5.58135V2.19587H111.091C112.506 2.19587 113.051 2.87801 113.051 3.91387C113.051 4.94973 112.506 5.58135 111.108 5.58135H109.233Z"/>
<path d="M119.84 7.24882C119.84 8.46153 118.903 9.01735 118.153 9.01735C117.318 9.01735 116.721 8.411 116.721 7.46778V3.42542H115.716V7.53515C115.716 9.18579 116.602 9.97742 117.829 9.97742C118.818 9.97742 119.465 9.45528 119.772 8.79839H119.84V9.8932H120.846V3.42542H119.84V7.24882Z"/>
<path d="M127.324 4.87393C127.009 3.95598 126.301 3.3412 125.006 3.3412C123.625 3.3412 122.603 4.11599 122.603 5.21079C122.603 6.10348 123.14 6.70142 124.341 6.97933L125.432 7.23198C126.093 7.38357 126.404 7.69516 126.404 8.14151C126.404 8.69733 125.807 9.1521 124.87 9.1521C124.047 9.1521 123.532 8.8026 123.353 8.10782L122.398 8.34363C122.633 9.44264 123.549 10.0279 124.887 10.0279C126.408 10.0279 127.443 9.20684 127.443 8.09098C127.443 7.18987 126.872 6.62141 125.705 6.33929L124.733 6.10348C123.958 5.914 123.608 5.65714 123.608 5.16027C123.608 4.60444 124.205 4.2002 125.006 4.2002C125.884 4.2002 126.246 4.68023 126.421 5.12658L127.324 4.87393Z"/>
<path d="M133.593 4.87393C133.278 3.95598 132.571 3.3412 131.275 3.3412C129.895 3.3412 128.872 4.11599 128.872 5.21079C128.872 6.10348 129.409 6.70142 130.611 6.97933L131.701 7.23198C132.362 7.38357 132.673 7.69516 132.673 8.14151C132.673 8.69733 132.076 9.1521 131.139 9.1521C130.317 9.1521 129.801 8.8026 129.622 8.10782L128.667 8.34363C128.902 9.44264 129.818 10.0279 131.156 10.0279C132.677 10.0279 133.713 9.20684 133.713 8.09098C133.713 7.18987 133.142 6.62141 131.974 6.33929L131.003 6.10348C130.227 5.914 129.878 5.65714 129.878 5.16027C129.878 4.60444 130.474 4.2002 131.275 4.2002C132.153 4.2002 132.515 4.68023 132.69 5.12658L133.593 4.87393Z"/>
<path d="M135.227 9.8932H136.232V3.42542H135.227V9.8932ZM135.738 2.34745C136.13 2.34745 136.454 2.04428 136.454 1.67373C136.454 1.30318 136.13 1 135.738 1C135.346 1 135.022 1.30318 135.022 1.67373C135.022 2.04428 135.346 2.34745 135.738 2.34745Z"/>
<path d="M140 10.0448C141.142 10.0448 141.739 9.43843 141.943 9.01735H141.994V9.8932H143V5.63187C143 3.57701 141.415 3.3412 140.58 3.3412C139.591 3.3412 138.466 3.67807 137.955 4.85709L138.909 5.19395C139.131 4.72234 139.655 4.21705 140.614 4.21705C141.538 4.21705 141.994 4.70129 141.994 5.53082V5.5645C141.994 6.04453 141.5 6.00242 140.307 6.15401C139.092 6.30981 137.767 6.57509 137.767 8.05729C137.767 9.32053 138.756 10.0448 140 10.0448ZM140.154 9.1521C139.352 9.1521 138.773 8.79839 138.773 8.10782C138.773 7.34988 139.472 7.11407 140.256 7.01302C140.682 6.96249 141.824 6.84458 141.994 6.64247V7.552C141.994 8.36047 141.347 9.1521 140.154 9.1521Z"/>
</mask>
<path d="M1 7.73727V33.6084H4.75838V14.8746H5.00127L12.7226 33.5705H15.8418L23.5631 14.8872H23.806V33.6084H27.5643V7.73727H22.7705L14.4356 27.848H14.1288L5.79385 7.73727H1Z" fill="white"/>
<path d="M42.1313 34C46.4138 34 49.4435 31.9157 50.3128 28.7576L46.695 28.1133C46.0047 29.945 44.3428 30.8798 42.1696 30.8798C38.897 30.8798 36.6982 28.7828 36.596 25.0436H50.5557V23.7046C50.5557 16.6936 46.3115 13.9524 41.8628 13.9524C36.3914 13.9524 32.7864 18.0706 32.7864 24.033C32.7864 30.0587 36.3403 34 42.1313 34ZM36.6088 22.214C36.7622 19.4601 38.782 17.0726 41.8884 17.0726C44.8542 17.0726 46.7973 19.2454 46.8101 22.214H36.6088Z" fill="white"/>
<path d="M69.5106 18.9422C68.718 15.9231 66.3275 13.9524 62.0833 13.9524C57.6474 13.9524 54.5026 16.2641 54.5026 19.7001C54.5026 22.454 56.19 24.2857 59.8717 25.0942L63.1955 25.8142C65.0874 26.2311 65.9695 27.0648 65.9695 28.2775C65.9695 29.7808 64.346 30.9556 61.8404 30.9556C59.5521 30.9556 58.082 29.9829 57.6218 28.0754L53.9273 28.6312C54.5665 32.0672 57.4556 34 61.866 34C66.6087 34 69.8941 31.5114 69.8941 27.9996C69.8941 25.2584 68.1299 23.5657 64.525 22.7445L61.4058 22.0371C59.2453 21.5318 58.3121 20.8118 58.3249 19.498C58.3121 18.0074 59.9484 16.9463 62.1216 16.9463C64.4994 16.9463 65.5988 18.2474 66.0462 19.5486L69.5106 18.9422Z" fill="white"/>
<path d="M83.2625 14.2051H79.2357V9.55633H75.4134V14.2051H72.5371V17.2368H75.4134V28.6944C75.4006 32.2188 78.1235 33.9242 81.1405 33.861C82.3549 33.8484 83.1731 33.621 83.6205 33.4568L82.9302 30.3366C82.6745 30.3871 82.2015 30.5008 81.5879 30.5008C80.3479 30.5008 79.2357 30.0966 79.2357 27.9112V17.2368H83.2625V14.2051Z" fill="white"/>
<path d="M95.5508 34C101.086 34 104.704 29.9955 104.704 23.9951C104.704 17.9569 101.086 13.9524 95.5508 13.9524C90.0155 13.9524 86.3977 17.9569 86.3977 23.9951C86.3977 29.9955 90.0155 34 95.5508 34ZM95.5636 30.8293C91.9458 30.8293 90.2584 27.7091 90.2584 23.9825C90.2584 20.2686 91.9458 17.1105 95.5636 17.1105C99.1558 17.1105 100.843 20.2686 100.843 23.9825C100.843 27.7091 99.1558 30.8293 95.5636 30.8293Z" fill="white"/>
<path d="M108.176 9.8932H109.233V6.52456H111.142C111.219 6.52456 111.291 6.52456 111.364 6.52035L113.205 9.8932H114.432L112.459 6.33087C113.571 5.95611 114.091 5.05921 114.091 3.91387C114.091 2.38956 113.171 1.26949 111.125 1.26949H108.176V9.8932ZM109.233 5.58135V2.19587H111.091C112.506 2.19587 113.051 2.87801 113.051 3.91387C113.051 4.94973 112.506 5.58135 111.108 5.58135H109.233Z" fill="white"/>
<path d="M119.84 7.24882C119.84 8.46153 118.903 9.01735 118.153 9.01735C117.318 9.01735 116.721 8.411 116.721 7.46778V3.42542H115.716V7.53515C115.716 9.18579 116.602 9.97742 117.829 9.97742C118.818 9.97742 119.465 9.45528 119.772 8.79839H119.84V9.8932H120.846V3.42542H119.84V7.24882Z" fill="white"/>
<path d="M127.324 4.87393C127.009 3.95598 126.301 3.3412 125.006 3.3412C123.625 3.3412 122.603 4.11599 122.603 5.21079C122.603 6.10348 123.14 6.70142 124.341 6.97933L125.432 7.23198C126.093 7.38357 126.404 7.69516 126.404 8.14151C126.404 8.69733 125.807 9.1521 124.87 9.1521C124.047 9.1521 123.532 8.8026 123.353 8.10782L122.398 8.34363C122.633 9.44264 123.549 10.0279 124.887 10.0279C126.408 10.0279 127.443 9.20684 127.443 8.09098C127.443 7.18987 126.872 6.62141 125.705 6.33929L124.733 6.10348C123.958 5.914 123.608 5.65714 123.608 5.16027C123.608 4.60444 124.205 4.2002 125.006 4.2002C125.884 4.2002 126.246 4.68023 126.421 5.12658L127.324 4.87393Z" fill="white"/>
<path d="M133.593 4.87393C133.278 3.95598 132.571 3.3412 131.275 3.3412C129.895 3.3412 128.872 4.11599 128.872 5.21079C128.872 6.10348 129.409 6.70142 130.611 6.97933L131.701 7.23198C132.362 7.38357 132.673 7.69516 132.673 8.14151C132.673 8.69733 132.076 9.1521 131.139 9.1521C130.317 9.1521 129.801 8.8026 129.622 8.10782L128.667 8.34363C128.902 9.44264 129.818 10.0279 131.156 10.0279C132.677 10.0279 133.713 9.20684 133.713 8.09098C133.713 7.18987 133.142 6.62141 131.974 6.33929L131.003 6.10348C130.227 5.914 129.878 5.65714 129.878 5.16027C129.878 4.60444 130.474 4.2002 131.275 4.2002C132.153 4.2002 132.515 4.68023 132.69 5.12658L133.593 4.87393Z" fill="white"/>
<path d="M135.227 9.8932H136.232V3.42542H135.227V9.8932ZM135.738 2.34745C136.13 2.34745 136.454 2.04428 136.454 1.67373C136.454 1.30318 136.13 1 135.738 1C135.346 1 135.022 1.30318 135.022 1.67373C135.022 2.04428 135.346 2.34745 135.738 2.34745Z" fill="white"/>
<path d="M140 10.0448C141.142 10.0448 141.739 9.43843 141.943 9.01735H141.994V9.8932H143V5.63187C143 3.57701 141.415 3.3412 140.58 3.3412C139.591 3.3412 138.466 3.67807 137.955 4.85709L138.909 5.19395C139.131 4.72234 139.655 4.21705 140.614 4.21705C141.538 4.21705 141.994 4.70129 141.994 5.53082V5.5645C141.994 6.04453 141.5 6.00242 140.307 6.15401C139.092 6.30981 137.767 6.57509 137.767 8.05729C137.767 9.32053 138.756 10.0448 140 10.0448ZM140.154 9.1521C139.352 9.1521 138.773 8.79839 138.773 8.10782C138.773 7.34988 139.472 7.11407 140.256 7.01302C140.682 6.96249 141.824 6.84458 141.994 6.64247V7.552C141.994 8.36047 141.347 9.1521 140.154 9.1521Z" fill="white"/>
<path d="M1 7.73727V33.6084H4.75838V14.8746H5.00127L12.7226 33.5705H15.8418L23.5631 14.8872H23.806V33.6084H27.5643V7.73727H22.7705L14.4356 27.848H14.1288L5.79385 7.73727H1Z" stroke="black" stroke-width="2" mask="url(#path-1-outside-1_28212_211)"/>
<path d="M1 7.73727V33.6084H4.75838V14.8746H5.00127L12.7226 33.5705H15.8418L23.5631 14.8872H23.806V33.6084H27.5643V7.73727H22.7705L14.4356 27.848H14.1288L5.79385 7.73727H1Z" stroke="black" stroke-opacity="0.2" stroke-width="2" mask="url(#path-1-outside-1_28212_211)"/>
<path d="M42.1313 34C46.4138 34 49.4435 31.9157 50.3128 28.7576L46.695 28.1133C46.0047 29.945 44.3428 30.8798 42.1696 30.8798C38.897 30.8798 36.6982 28.7828 36.596 25.0436H50.5557V23.7046C50.5557 16.6936 46.3115 13.9524 41.8628 13.9524C36.3914 13.9524 32.7864 18.0706 32.7864 24.033C32.7864 30.0587 36.3403 34 42.1313 34ZM36.6088 22.214C36.7622 19.4601 38.782 17.0726 41.8884 17.0726C44.8542 17.0726 46.7973 19.2454 46.8101 22.214H36.6088Z" stroke="black" stroke-width="2" mask="url(#path-1-outside-1_28212_211)"/>
<path d="M42.1313 34C46.4138 34 49.4435 31.9157 50.3128 28.7576L46.695 28.1133C46.0047 29.945 44.3428 30.8798 42.1696 30.8798C38.897 30.8798 36.6982 28.7828 36.596 25.0436H50.5557V23.7046C50.5557 16.6936 46.3115 13.9524 41.8628 13.9524C36.3914 13.9524 32.7864 18.0706 32.7864 24.033C32.7864 30.0587 36.3403 34 42.1313 34ZM36.6088 22.214C36.7622 19.4601 38.782 17.0726 41.8884 17.0726C44.8542 17.0726 46.7973 19.2454 46.8101 22.214H36.6088Z" stroke="black" stroke-opacity="0.2" stroke-width="2" mask="url(#path-1-outside-1_28212_211)"/>
<path d="M69.5106 18.9422C68.718 15.9231 66.3275 13.9524 62.0833 13.9524C57.6474 13.9524 54.5026 16.2641 54.5026 19.7001C54.5026 22.454 56.19 24.2857 59.8717 25.0942L63.1955 25.8142C65.0874 26.2311 65.9695 27.0648 65.9695 28.2775C65.9695 29.7808 64.346 30.9556 61.8404 30.9556C59.5521 30.9556 58.082 29.9829 57.6218 28.0754L53.9273 28.6312C54.5665 32.0672 57.4556 34 61.866 34C66.6087 34 69.8941 31.5114 69.8941 27.9996C69.8941 25.2584 68.1299 23.5657 64.525 22.7445L61.4058 22.0371C59.2453 21.5318 58.3121 20.8118 58.3249 19.498C58.3121 18.0074 59.9484 16.9463 62.1216 16.9463C64.4994 16.9463 65.5988 18.2474 66.0462 19.5486L69.5106 18.9422Z" stroke="black" stroke-width="2" mask="url(#path-1-outside-1_28212_211)"/>
<path d="M69.5106 18.9422C68.718 15.9231 66.3275 13.9524 62.0833 13.9524C57.6474 13.9524 54.5026 16.2641 54.5026 19.7001C54.5026 22.454 56.19 24.2857 59.8717 25.0942L63.1955 25.8142C65.0874 26.2311 65.9695 27.0648 65.9695 28.2775C65.9695 29.7808 64.346 30.9556 61.8404 30.9556C59.5521 30.9556 58.082 29.9829 57.6218 28.0754L53.9273 28.6312C54.5665 32.0672 57.4556 34 61.866 34C66.6087 34 69.8941 31.5114 69.8941 27.9996C69.8941 25.2584 68.1299 23.5657 64.525 22.7445L61.4058 22.0371C59.2453 21.5318 58.3121 20.8118 58.3249 19.498C58.3121 18.0074 59.9484 16.9463 62.1216 16.9463C64.4994 16.9463 65.5988 18.2474 66.0462 19.5486L69.5106 18.9422Z" stroke="black" stroke-opacity="0.2" stroke-width="2" mask="url(#path-1-outside-1_28212_211)"/>
<path d="M83.2625 14.2051H79.2357V9.55633H75.4134V14.2051H72.5371V17.2368H75.4134V28.6944C75.4006 32.2188 78.1235 33.9242 81.1405 33.861C82.3549 33.8484 83.1731 33.621 83.6205 33.4568L82.9302 30.3366C82.6745 30.3871 82.2015 30.5008 81.5879 30.5008C80.3479 30.5008 79.2357 30.0966 79.2357 27.9112V17.2368H83.2625V14.2051Z" stroke="black" stroke-width="2" mask="url(#path-1-outside-1_28212_211)"/>
<path d="M83.2625 14.2051H79.2357V9.55633H75.4134V14.2051H72.5371V17.2368H75.4134V28.6944C75.4006 32.2188 78.1235 33.9242 81.1405 33.861C82.3549 33.8484 83.1731 33.621 83.6205 33.4568L82.9302 30.3366C82.6745 30.3871 82.2015 30.5008 81.5879 30.5008C80.3479 30.5008 79.2357 30.0966 79.2357 27.9112V17.2368H83.2625V14.2051Z" stroke="black" stroke-opacity="0.2" stroke-width="2" mask="url(#path-1-outside-1_28212_211)"/>
<path d="M95.5508 34C101.086 34 104.704 29.9955 104.704 23.9951C104.704 17.9569 101.086 13.9524 95.5508 13.9524C90.0155 13.9524 86.3977 17.9569 86.3977 23.9951C86.3977 29.9955 90.0155 34 95.5508 34ZM95.5636 30.8293C91.9458 30.8293 90.2584 27.7091 90.2584 23.9825C90.2584 20.2686 91.9458 17.1105 95.5636 17.1105C99.1558 17.1105 100.843 20.2686 100.843 23.9825C100.843 27.7091 99.1558 30.8293 95.5636 30.8293Z" stroke="black" stroke-width="2" mask="url(#path-1-outside-1_28212_211)"/>
<path d="M95.5508 34C101.086 34 104.704 29.9955 104.704 23.9951C104.704 17.9569 101.086 13.9524 95.5508 13.9524C90.0155 13.9524 86.3977 17.9569 86.3977 23.9951C86.3977 29.9955 90.0155 34 95.5508 34ZM95.5636 30.8293C91.9458 30.8293 90.2584 27.7091 90.2584 23.9825C90.2584 20.2686 91.9458 17.1105 95.5636 17.1105C99.1558 17.1105 100.843 20.2686 100.843 23.9825C100.843 27.7091 99.1558 30.8293 95.5636 30.8293Z" stroke="black" stroke-opacity="0.2" stroke-width="2" mask="url(#path-1-outside-1_28212_211)"/>
<path d="M108.176 9.8932H109.233V6.52456H111.142C111.219 6.52456 111.291 6.52456 111.364 6.52035L113.205 9.8932H114.432L112.459 6.33087C113.571 5.95611 114.091 5.05921 114.091 3.91387C114.091 2.38956 113.171 1.26949 111.125 1.26949H108.176V9.8932ZM109.233 5.58135V2.19587H111.091C112.506 2.19587 113.051 2.87801 113.051 3.91387C113.051 4.94973 112.506 5.58135 111.108 5.58135H109.233Z" stroke="black" stroke-width="2" mask="url(#path-1-outside-1_28212_211)"/>
<path d="M108.176 9.8932H109.233V6.52456H111.142C111.219 6.52456 111.291 6.52456 111.364 6.52035L113.205 9.8932H114.432L112.459 6.33087C113.571 5.95611 114.091 5.05921 114.091 3.91387C114.091 2.38956 113.171 1.26949 111.125 1.26949H108.176V9.8932ZM109.233 5.58135V2.19587H111.091C112.506 2.19587 113.051 2.87801 113.051 3.91387C113.051 4.94973 112.506 5.58135 111.108 5.58135H109.233Z" stroke="black" stroke-opacity="0.2" stroke-width="2" mask="url(#path-1-outside-1_28212_211)"/>
<path d="M119.84 7.24882C119.84 8.46153 118.903 9.01735 118.153 9.01735C117.318 9.01735 116.721 8.411 116.721 7.46778V3.42542H115.716V7.53515C115.716 9.18579 116.602 9.97742 117.829 9.97742C118.818 9.97742 119.465 9.45528 119.772 8.79839H119.84V9.8932H120.846V3.42542H119.84V7.24882Z" stroke="black" stroke-width="2" mask="url(#path-1-outside-1_28212_211)"/>
<path d="M119.84 7.24882C119.84 8.46153 118.903 9.01735 118.153 9.01735C117.318 9.01735 116.721 8.411 116.721 7.46778V3.42542H115.716V7.53515C115.716 9.18579 116.602 9.97742 117.829 9.97742C118.818 9.97742 119.465 9.45528 119.772 8.79839H119.84V9.8932H120.846V3.42542H119.84V7.24882Z" stroke="black" stroke-opacity="0.2" stroke-width="2" mask="url(#path-1-outside-1_28212_211)"/>
<path d="M127.324 4.87393C127.009 3.95598 126.301 3.3412 125.006 3.3412C123.625 3.3412 122.603 4.11599 122.603 5.21079C122.603 6.10348 123.14 6.70142 124.341 6.97933L125.432 7.23198C126.093 7.38357 126.404 7.69516 126.404 8.14151C126.404 8.69733 125.807 9.1521 124.87 9.1521C124.047 9.1521 123.532 8.8026 123.353 8.10782L122.398 8.34363C122.633 9.44264 123.549 10.0279 124.887 10.0279C126.408 10.0279 127.443 9.20684 127.443 8.09098C127.443 7.18987 126.872 6.62141 125.705 6.33929L124.733 6.10348C123.958 5.914 123.608 5.65714 123.608 5.16027C123.608 4.60444 124.205 4.2002 125.006 4.2002C125.884 4.2002 126.246 4.68023 126.421 5.12658L127.324 4.87393Z" stroke="black" stroke-width="2" mask="url(#path-1-outside-1_28212_211)"/>
<path d="M127.324 4.87393C127.009 3.95598 126.301 3.3412 125.006 3.3412C123.625 3.3412 122.603 4.11599 122.603 5.21079C122.603 6.10348 123.14 6.70142 124.341 6.97933L125.432 7.23198C126.093 7.38357 126.404 7.69516 126.404 8.14151C126.404 8.69733 125.807 9.1521 124.87 9.1521C124.047 9.1521 123.532 8.8026 123.353 8.10782L122.398 8.34363C122.633 9.44264 123.549 10.0279 124.887 10.0279C126.408 10.0279 127.443 9.20684 127.443 8.09098C127.443 7.18987 126.872 6.62141 125.705 6.33929L124.733 6.10348C123.958 5.914 123.608 5.65714 123.608 5.16027C123.608 4.60444 124.205 4.2002 125.006 4.2002C125.884 4.2002 126.246 4.68023 126.421 5.12658L127.324 4.87393Z" stroke="black" stroke-opacity="0.2" stroke-width="2" mask="url(#path-1-outside-1_28212_211)"/>
<path d="M133.593 4.87393C133.278 3.95598 132.571 3.3412 131.275 3.3412C129.895 3.3412 128.872 4.11599 128.872 5.21079C128.872 6.10348 129.409 6.70142 130.611 6.97933L131.701 7.23198C132.362 7.38357 132.673 7.69516 132.673 8.14151C132.673 8.69733 132.076 9.1521 131.139 9.1521C130.317 9.1521 129.801 8.8026 129.622 8.10782L128.667 8.34363C128.902 9.44264 129.818 10.0279 131.156 10.0279C132.677 10.0279 133.713 9.20684 133.713 8.09098C133.713 7.18987 133.142 6.62141 131.974 6.33929L131.003 6.10348C130.227 5.914 129.878 5.65714 129.878 5.16027C129.878 4.60444 130.474 4.2002 131.275 4.2002C132.153 4.2002 132.515 4.68023 132.69 5.12658L133.593 4.87393Z" stroke="black" stroke-width="2" mask="url(#path-1-outside-1_28212_211)"/>
<path d="M133.593 4.87393C133.278 3.95598 132.571 3.3412 131.275 3.3412C129.895 3.3412 128.872 4.11599 128.872 5.21079C128.872 6.10348 129.409 6.70142 130.611 6.97933L131.701 7.23198C132.362 7.38357 132.673 7.69516 132.673 8.14151C132.673 8.69733 132.076 9.1521 131.139 9.1521C130.317 9.1521 129.801 8.8026 129.622 8.10782L128.667 8.34363C128.902 9.44264 129.818 10.0279 131.156 10.0279C132.677 10.0279 133.713 9.20684 133.713 8.09098C133.713 7.18987 133.142 6.62141 131.974 6.33929L131.003 6.10348C130.227 5.914 129.878 5.65714 129.878 5.16027C129.878 4.60444 130.474 4.2002 131.275 4.2002C132.153 4.2002 132.515 4.68023 132.69 5.12658L133.593 4.87393Z" stroke="black" stroke-opacity="0.2" stroke-width="2" mask="url(#path-1-outside-1_28212_211)"/>
<path d="M135.227 9.8932H136.232V3.42542H135.227V9.8932ZM135.738 2.34745C136.13 2.34745 136.454 2.04428 136.454 1.67373C136.454 1.30318 136.13 1 135.738 1C135.346 1 135.022 1.30318 135.022 1.67373C135.022 2.04428 135.346 2.34745 135.738 2.34745Z" stroke="black" stroke-width="2" mask="url(#path-1-outside-1_28212_211)"/>
<path d="M135.227 9.8932H136.232V3.42542H135.227V9.8932ZM135.738 2.34745C136.13 2.34745 136.454 2.04428 136.454 1.67373C136.454 1.30318 136.13 1 135.738 1C135.346 1 135.022 1.30318 135.022 1.67373C135.022 2.04428 135.346 2.34745 135.738 2.34745Z" stroke="black" stroke-opacity="0.2" stroke-width="2" mask="url(#path-1-outside-1_28212_211)"/>
<path d="M140 10.0448C141.142 10.0448 141.739 9.43843 141.943 9.01735H141.994V9.8932H143V5.63187C143 3.57701 141.415 3.3412 140.58 3.3412C139.591 3.3412 138.466 3.67807 137.955 4.85709L138.909 5.19395C139.131 4.72234 139.655 4.21705 140.614 4.21705C141.538 4.21705 141.994 4.70129 141.994 5.53082V5.5645C141.994 6.04453 141.5 6.00242 140.307 6.15401C139.092 6.30981 137.767 6.57509 137.767 8.05729C137.767 9.32053 138.756 10.0448 140 10.0448ZM140.154 9.1521C139.352 9.1521 138.773 8.79839 138.773 8.10782C138.773 7.34988 139.472 7.11407 140.256 7.01302C140.682 6.96249 141.824 6.84458 141.994 6.64247V7.552C141.994 8.36047 141.347 9.1521 140.154 9.1521Z" stroke="black" stroke-width="2" mask="url(#path-1-outside-1_28212_211)"/>
<path d="M140 10.0448C141.142 10.0448 141.739 9.43843 141.943 9.01735H141.994V9.8932H143V5.63187C143 3.57701 141.415 3.3412 140.58 3.3412C139.591 3.3412 138.466 3.67807 137.955 4.85709L138.909 5.19395C139.131 4.72234 139.655 4.21705 140.614 4.21705C141.538 4.21705 141.994 4.70129 141.994 5.53082V5.5645C141.994 6.04453 141.5 6.00242 140.307 6.15401C139.092 6.30981 137.767 6.57509 137.767 8.05729C137.767 9.32053 138.756 10.0448 140 10.0448ZM140.154 9.1521C139.352 9.1521 138.773 8.79839 138.773 8.10782C138.773 7.34988 139.472 7.11407 140.256 7.01302C140.682 6.96249 141.824 6.84458 141.994 6.64247V7.552C141.994 8.36047 141.347 9.1521 140.154 9.1521Z" stroke="black" stroke-opacity="0.2" stroke-width="2" mask="url(#path-1-outside-1_28212_211)"/>
</svg>
